<svg xmlns="http://www.w3.org/2000/svg" width="800" height="800" viewBox="0 0 800 800" fill="none"><g clip-path="url(#clip0_111_16)"><path d="M120.464 78.5506C120.464 69.518 113.164 62.2156 104.129 62.2156C95.0966 62.2156 87.7942 69.516 87.7942 78.5506V555.247H0V764.065H208.26V555.249H120.464V78.5506ZM175.592 587.918V731.396H32.6681V587.918H175.592Z" fill="white"></path><path d="M413.109 78.5506C413.109 69.518 405.808 62.2156 396.774 62.2156C387.739 62.2156 380.439 69.516 380.439 78.5506V290.617H292.643V499.434H380.439V711.485C380.439 720.533 387.757 727.82 396.774 727.82C405.79 727.82 413.109 720.535 413.109 711.485V499.434H500.905V290.619H413.109V78.5506ZM468.237 323.287V466.766H325.313V323.287H468.237Z" fill="white"></path><path d="M591.74 35.9355V244.753H679.536V721.45C679.536 730.482 686.854 737.785 695.871 737.785C704.903 737.785 712.206 730.484 712.206 721.45V244.753H800.002V35.9355H591.74ZM767.332 212.083H624.408V68.6037H767.332V212.083Z" fill="white"></path></g><defs><clipPath id="clip0_111_16"><rect width="800" height="800" fill="white"></rect></clipPath></defs></svg>